<?xml version="1.0" standalone="no"?>
<!DOCTYPE svg PUBLIC "-//W3C//DTD SVG 1.1//EN" "http://www.w3.org/Graphics/SVG/1.1/DTD/svg11.dtd" >
<svg xmlns="http://www.w3.org/2000/svg">
<metadata></metadata>
<defs>
<font id="typeform_glyphsregular" horiz-adv-x="2048" >
<font-face units-per-em="2048" ascent="1638" descent="-410" />
<missing-glyph horiz-adv-x="1024" />
<glyph />
<glyph />
<glyph unicode="&#xd;" />
<glyph unicode=" "  horiz-adv-x="1024" />
<glyph unicode="&#x09;" horiz-adv-x="1024" />
<glyph unicode="&#xa0;" horiz-adv-x="1024" />
<glyph unicode="A" d="M0 894h782q30 94 91 280t151 464q30 -92 91 -278t151 -466h782q-78 -56 -236 -171t-396 -289q30 -92 90 -279t150 -465q-78 58 -236 173t-396 287q-78 -58 -236 -173t-396 -287q30 92 90 279t150 465q-78 58 -236 173t-396 287z" />
<glyph unicode="B" d="M0 1106q0 8 1 15t1 13v26q10 102 54 187t120 153q76 70 165 104t191 34q82 0 157 -22t141 -68q66 -44 115 -103t79 -133q32 74 80 133t114 103q68 46 142 68t156 22q102 0 191 -34t165 -104q78 -68 121 -153t53 -187q2 -6 2 -13v-13v-28q0 -66 -11 -131t-33 -127 t-51 -118t-67 -108q-38 -50 -80 -99t-88 -97q-46 -46 -94 -92t-100 -90t-101 -87t-95 -85q-46 -40 -90 -83t-84 -89q-22 -24 -41 -47t-35 -45t-29 -44t-25 -42q-22 42 -54 87t-74 91q-40 46 -84 90t-92 84q-46 40 -94 82t-100 86q-52 46 -101 92t-95 92q-46 48 -88 97 t-80 99q-36 52 -65 109t-51 119q-12 32 -20 63t-14 63t-9 65t-3 65z" />
<glyph unicode="C" d="M-4 -138q2 30 16 61t38 63t58 55t78 35q52 20 101 40t93 38q44 20 85 38t77 34q10 4 20 9t20 9q12 6 23 13t21 13t19 11t15 9q8 6 15 10t11 6v12q0 12 -3 34t-7 54h54q-10 14 -19 31t-17 35q-6 18 -11 38t-9 42q-16 12 -28 26t-22 32q-8 18 -13 40t-7 46v8t-2 10 q0 6 -2 12t-4 14q-6 26 -8 48t0 42t8 38t16 32l-24 72q-4 24 -7 51t-7 55q-1 11 -1 24q0 19 2 43q3 39 9 87q4 24 9 45t11 39q8 20 16 35t18 27t21 22t21 18q12 8 26 12t28 6q16 28 45 48t69 34q42 14 86 20t88 6q36 0 71 -4t67 -14q34 -8 65 -21t61 -31t55 -42t43 -56 q20 -32 33 -69t17 -79q6 -40 9 -78t3 -74q1 -24 1 -48v-24q-1 -36 -5 -70l8 -8l4 -4t2 -4q14 -18 21 -40t7 -50t-6 -60t-18 -70q-6 -24 -14 -46t-18 -40t-23 -31t-27 -23q-2 -24 -6 -47t-12 -43q-6 -18 -14 -35t-20 -31q12 -2 31 -5t45 -7q0 -10 -3 -29t-9 -49q0 -2 -1 -8 t-3 -14q20 -10 38 -20t36 -18q18 -6 35 -12t33 -12q46 -12 89 -25t81 -27q40 -14 75 -29t67 -31q46 -20 81 -43t57 -47q24 -24 37 -49t13 -51q6 -32 9 -63t5 -61q4 -32 5 -65t1 -65v-78h-2052v268z" />
<glyph unicode="D" d="M0 -286v778q0 18 6 32t18 26t27 18t31 6h246q18 0 32 -6t26 -18t18 -26t6 -32v-778q0 -18 -6 -33t-18 -27t-26 -17t-32 -5h-246q-16 0 -31 5t-27 17t-18 27t-6 33zM492 -308v840h40q14 0 28 5t28 15q16 12 33 29t37 39q20 24 42 60t46 82q24 48 49 104t51 122q6 14 14 28 t18 26q12 14 21 24t17 16l9 9t11 9q8 6 15 11t15 11q24 20 44 40t34 42q16 24 31 61t27 87q6 24 12 53t10 61q4 34 7 70t5 76q0 12 10 18t30 8q4 2 7 2h5q18 0 38 -5t44 -15q14 -6 26 -13t22 -17q12 -8 23 -19t19 -23q24 -32 37 -74t17 -96q1 -18 1 -36q0 -35 -5 -68 q-8 -50 -28 -96q-2 -4 -14 -30t-36 -72q-24 -44 -40 -83t-26 -71q-4 -16 -6 -31t-2 -27t3 -22t7 -20q116 6 208 7h36q70 0 124 -3q70 -2 115 -8t67 -16q22 -8 45 -30t47 -58q24 -34 35 -63t9 -53q0 -8 -8 -23t-24 -37q-16 -20 -25 -34t-11 -22q0 -12 8 -32t24 -48 q18 -28 28 -48t10 -30t-11 -27t-33 -43q-22 -24 -33 -40t-11 -26t5 -29t15 -47q12 -28 17 -47t5 -29q0 -16 -13 -38t-39 -48t-41 -42t-19 -22q-2 -8 -3 -24t-1 -40t-1 -40t-3 -24q-8 -18 -26 -39t-46 -45t-51 -40t-43 -22q-38 -12 -100 -17t-150 -5t-167 2t-149 8 q-22 2 -56 5t-80 7q-54 10 -161 30t-269 50z" />
<glyph unicode="E" d="M0 1146q0 42 15 79t45 67t66 45t78 15t79 -15t67 -45t45 -67t15 -79q0 -18 -3 -35t-9 -33t-15 -32t-23 -30q36 -40 90 -99t124 -139q14 58 40 172t64 286q-32 12 -58 31t-46 45q-20 28 -31 58t-11 64q0 42 15 78t45 66q32 30 68 45t78 15t78 -15t66 -45t45 -66t15 -78 q0 -26 -6 -51t-20 -49q-14 -22 -31 -41t-39 -33q30 -76 75 -192t103 -270q22 58 67 174t111 288q-20 14 -38 33t-32 41q-12 24 -19 49t-7 51q0 42 15 78t45 66t66 45t78 15t79 -15t67 -45t45 -66t15 -78q0 -34 -10 -64t-32 -58q-20 -26 -46 -45t-58 -31q18 -76 44 -190 t60 -268q28 30 81 90t133 148q-12 14 -22 30t-16 32t-9 33t-3 35q0 42 15 79t45 67q32 30 68 45t78 15t78 -15t66 -45t45 -67t15 -79q0 -40 -14 -75t-44 -65q-28 -30 -62 -46t-76 -18q-38 -108 -97 -272t-137 -384h-1188q-28 82 -87 246t-147 410q-40 2 -75 18t-63 46 t-43 65t-15 75zM430 -122v286h1188v-286h-1188z" />
<glyph unicode="F" d="M6 -228q2 18 6 34t10 30t13 26t17 24q8 6 19 14t27 16t36 17t42 19q52 22 93 42t69 38q30 20 58 45t56 55q24 24 40 43t22 33q8 16 19 53t25 93q10 38 19 70t15 58q8 26 15 47t13 37q30 74 66 138t80 116q44 54 96 95t112 71q30 14 63 27t69 23q38 10 79 19t85 17 q32 6 53 11t31 7q12 4 21 9t15 11t11 14t9 16q4 10 5 20t-1 20q0 10 -2 24t-8 32q-4 20 -10 42t-16 48q-8 28 -15 52t-13 44q-4 20 -6 37t-4 29v29v23q2 10 4 18t6 12q2 4 5 6t5 4q4 2 7 2h7t11 -2t15 -6q10 -4 22 -9t26 -13q32 -16 57 -26t43 -14t36 -3t36 5q10 4 20 10 t22 14q14 8 27 20t27 26q10 12 19 20t15 14q8 6 13 10t7 4q6 4 12 5t12 1t12 -1t10 -5q10 -2 17 -9t9 -17q4 -10 8 -30t8 -50q2 -18 5 -38t5 -40q4 -20 7 -42t7 -44q4 -16 6 -30t2 -26v-7t-2 -7q-2 -10 -9 -22t-21 -26q-20 -22 -31 -43t-15 -41t-1 -48t11 -64l8 -32t6 -32 q4 -16 5 -32t1 -32q0 -32 -5 -57t-15 -45q-8 -20 -28 -47t-52 -61q-10 -12 -20 -22t-18 -20l-12 -16t-10 -14q-20 -28 -36 -63t-28 -75q-10 -38 -15 -82t-5 -94q0 -48 6 -88t16 -72q12 -30 32 -61t50 -63q10 -8 17 -16t11 -14t7 -10t3 -6q4 -8 6 -15t2 -15t-3 -16t-7 -16 t-8 -14t-10 -10t-12 -5t-14 -1q-24 -2 -54 15t-66 51q-34 34 -60 70t-42 74q-2 6 -4 14l-4 16q-2 10 -3 20t-3 20q0 16 -2 29t-6 23q-2 10 -6 17t-8 11q-4 8 -11 13t-17 9q-8 4 -18 5t-22 1q-6 2 -12 2t-12 -2q-4 0 -9 -2t-9 -6q-12 -6 -27 -21t-33 -39t-34 -52t-32 -58 q-8 -18 -15 -32t-11 -24t-5 -15t-1 -7h14q6 0 15 -1t19 -3q34 -2 56 -6t32 -12q12 -8 18 -25t6 -41q0 -4 1 -11t1 -15h-336q-42 0 -125 -1t-209 -1q-2 2 -6 5t-10 9q-18 14 -36 22t-36 8t-43 -6t-57 -18t-63 -24t-59 -22q-28 -12 -52 -22t-46 -18q-20 -10 -38 -21t-34 -23 q-16 -14 -26 -25t-14 -21q-4 -12 -4 -24t4 -24q6 -14 17 -30t29 -34q10 -10 17 -18t11 -12q6 -6 8 -10l2 -4q0 -6 -4 -9t-14 -5h-12q-6 0 -14 1t-16 3q-4 0 -10 2t-12 6q-6 2 -13 5t-17 9q-28 14 -49 30t-35 36q-10 16 -16 35t-6 41v12z" />
<glyph unicode="G" d="M8 -242v1486q0 10 4 18t10 14q6 8 15 11t19 3h3900q12 0 20 -3t14 -11q6 -6 9 -14t3 -18v-1486q0 -10 -3 -19t-9 -15t-14 -9t-20 -3h-3900q-10 0 -19 3t-15 9t-10 15t-4 19zM92 60v-214q0 -8 2 -14t6 -10t10 -6t14 -2h400q8 0 14 2t10 6q6 4 8 10t2 14v214q0 8 -2 14 t-8 10q-4 4 -10 6t-14 2h-400q-8 0 -14 -2t-10 -6t-6 -10t-2 -14zM92 218q0 -8 2 -15t6 -11t10 -6t14 -2h400q8 0 14 2t10 6q6 4 8 11t2 15v214q0 8 -2 14t-8 10q-4 4 -10 5t-14 1h-400q-8 0 -14 -1t-10 -5t-6 -10t-2 -14v-214zM92 588q0 -6 2 -12t6 -10t10 -6t14 -2h400 q8 0 14 2t10 6q6 4 8 10t2 12v214q0 10 -2 16t-8 10q-4 4 -10 6t-14 2h-400q-8 0 -14 -2t-10 -6t-6 -10t-2 -16v-214zM92 950q0 -6 2 -12t6 -10t10 -6t14 -2h400q8 0 14 2t10 6q6 4 8 10t2 12v216q0 8 -2 14t-8 10q-4 4 -10 6t-14 2h-400q-8 0 -14 -2t-10 -6t-6 -10t-2 -14 v-216zM650 218q0 -8 2 -15t6 -11t10 -6t14 -2h400q8 0 14 2t10 6t6 11t2 15v214q0 8 -2 14t-6 10t-10 5t-14 1h-400q-8 0 -14 -1t-10 -5t-6 -10t-2 -14v-214zM650 588q0 -6 2 -12t6 -10t10 -6t14 -2h400q8 0 14 2t10 6t6 10t2 12v214q0 10 -2 16t-6 10t-10 6t-14 2h-400 q-8 0 -14 -2t-10 -6t-6 -10t-2 -16v-214zM650 950q0 -6 2 -12t6 -10t10 -6t14 -2h400q8 0 14 2t10 6t6 10t2 12v216q0 8 -2 14t-6 10t-10 6t-14 2h-400q-8 0 -14 -2t-10 -6t-6 -10t-2 -14v-216zM660 60v-214q0 -8 2 -14t6 -10t10 -6t14 -2h400q8 0 14 2t10 6t6 10t2 14v214 q0 8 -2 14t-6 10t-10 6t-14 2h-400q-8 0 -14 -2t-10 -6t-6 -10t-2 -14zM1206 60v-214q0 -8 2 -14t6 -10t11 -6t15 -2h1514q8 0 14 2t10 6t6 10t2 14v214q0 8 -2 14t-6 10t-10 6t-14 2h-1514q-8 0 -15 -2t-11 -6t-6 -10t-2 -14zM1216 218q0 -8 2 -15t6 -11t11 -6t15 -2h398 q10 0 16 2t10 6t6 11t2 15v214q0 8 -2 14t-6 10t-10 5t-16 1h-398q-8 0 -15 -1t-11 -5t-6 -10t-2 -14v-214zM1216 588q0 -6 2 -12t6 -10t11 -6t15 -2h398q10 0 16 2t10 6t6 10t2 12v214q0 10 -2 16t-6 10t-10 6t-16 2h-398q-8 0 -15 -2t-11 -6t-6 -10t-2 -16v-214zM1216 950 q0 -6 2 -12t6 -10t11 -6t15 -2h398q10 0 16 2t10 6t6 10t2 12v216q0 8 -2 14t-6 10t-10 6t-16 2h-398q-8 0 -15 -2t-11 -6t-6 -10t-2 -14v-216zM1774 218q0 -8 2 -15t6 -11t10 -6t14 -2h400q8 0 14 2t10 6t6 11t2 15v214q0 8 -2 14t-6 10t-10 5t-14 1h-400q-8 0 -14 -1 t-10 -5t-6 -10t-2 -14v-214zM1774 588q0 -6 2 -12t6 -10t10 -6t14 -2h400q8 0 14 2t10 6t6 10t2 12v214q0 10 -2 16t-6 10t-10 6t-14 2h-400q-8 0 -14 -2t-10 -6t-6 -10t-2 -16v-214zM1774 950q0 -6 2 -12t6 -10t10 -6t14 -2h400q8 0 14 2t10 6t6 10t2 12v216q0 8 -2 14 t-6 10t-10 6t-14 2h-400q-8 0 -14 -2t-10 -6t-6 -10t-2 -14v-216zM2330 206q0 -6 2 -12t6 -10q6 -4 12 -6t14 -2h398q10 0 16 2t10 6t6 10t2 12v216q0 8 -2 14t-6 10t-10 6t-16 2h-398q-8 0 -14 -2t-12 -6q-4 -4 -6 -10t-2 -14v-216zM2330 580q0 -8 2 -14t6 -10q6 -4 12 -7 t14 -3h398q10 0 16 3t10 7t6 10t2 14v214q0 10 -2 16t-6 8q-4 4 -10 6t-16 2h-398q-8 0 -14 -2t-12 -6q-4 -2 -6 -8t-2 -16v-214zM2330 950q0 -6 2 -12t6 -10q6 -4 12 -6t14 -2h398q10 0 16 2t10 6t6 10t2 12v216q0 8 -2 14t-6 10t-10 6t-16 2h-398q-8 0 -14 -2t-12 -6 q-4 -4 -6 -10t-2 -14v-216zM2888 52v-216q0 -8 2 -14t6 -10t10 -6t14 -2h400q8 0 14 2t10 6t6 10t2 14v216q0 8 -2 14t-6 8q-4 4 -10 6t-14 2h-400q-8 0 -14 -2t-10 -6q-4 -2 -6 -8t-2 -14zM2888 206q0 -6 2 -12t6 -10t10 -6t14 -2h400q8 0 14 2t10 6t6 10t2 12v216 q0 8 -2 14t-6 10t-10 6t-14 2h-400q-8 0 -14 -2t-10 -6t-6 -10t-2 -14v-216zM2888 580q0 -8 2 -14t6 -10t10 -7t14 -3h400q8 0 14 3t10 7t6 10t2 14v214q0 10 -2 16t-6 8q-4 4 -10 6t-14 2h-400q-8 0 -14 -2t-10 -6q-4 -2 -6 -8t-2 -16v-214zM2888 950q0 -6 2 -12t6 -10 t10 -6t14 -2h400q8 0 14 2t10 6t6 10t2 12v216q0 8 -2 14t-6 10t-10 6t-14 2h-400q-8 0 -14 -2t-10 -6t-6 -10t-2 -14v-216zM3444 52v-216q0 -8 2 -14t6 -10q6 -4 12 -6t14 -2h398q10 0 16 2t10 6t6 10t2 14v216q0 8 -2 14t-6 8q-4 4 -10 6t-16 2h-398q-8 0 -14 -2t-12 -6 q-4 -2 -6 -8t-2 -14zM3444 206q0 -6 2 -12t6 -10q6 -4 12 -6t14 -2h398q10 0 16 2t10 6t6 10t2 12v216q0 8 -2 14t-6 10t-10 6t-16 2h-398q-8 0 -14 -2t-12 -6q-4 -4 -6 -10t-2 -14v-216zM3444 580q0 -8 2 -14t6 -10q6 -4 12 -7t14 -3h398q10 0 16 3t10 7t6 10t2 14v214 q0 10 -2 16t-6 8q-4 4 -10 6t-16 2h-398q-8 0 -14 -2t-12 -6q-4 -2 -6 -8t-2 -16v-214zM3444 950q0 -6 2 -12t6 -10q6 -4 12 -6t14 -2h398q10 0 16 2t10 6t6 10t2 12v216q0 8 -2 14t-6 10t-10 6t-16 2h-398q-8 0 -14 -2t-12 -6q-4 -4 -6 -10t-2 -14v-216z" />
<glyph unicode="H" d="M14 312q34 38 99 112t161 186q42 -38 127 -117t211 -199q88 134 265 399t441 661h404q-136 -206 -411 -620t-689 -1034q-76 76 -228 230t-380 382z" />
<glyph unicode="I" d="M732 1292q12 14 37 39l63 63q76 -74 227 -224t377 -376q6 -6 18 -17t30 -29q8 -6 21 -19t31 -33l-32 -32t-56 -54l-5 -5t-7 -9q-76 -74 -227 -224t-377 -372q-12 14 -37 39l-61 61q76 76 226 225t376 371q-76 76 -227 225t-377 371z" />
<glyph unicode="J" d="M144 696q6 8 19 21l31 31q6 6 19 18t31 28q76 76 227 226t377 374l37 -37t63 -65q-74 -74 -225 -223t-379 -373q76 -74 226 -223t376 -373q-12 -12 -36 -37t-62 -63q-76 74 -227 223t-377 373q-2 2 -5 6t-7 8q-10 12 -32 33t-56 53z" />
<glyph unicode="K" d="M328 324q76 76 225 228t373 378l37 37l61 61v2q14 -12 39 -37t61 -63q76 -76 225 -227t371 -377l-37 -37l-63 -63q-74 76 -223 227t-373 377q-74 -76 -223 -227t-373 -377l-37 37t-63 61z" />
<glyph unicode="L" d="M328 824l37 37t63 61q76 -76 225 -227t371 -377q74 76 223 227t373 377l100 -100q-74 -76 -223 -227t-373 -377l-37 -37l-63 -63q-12 14 -36 39t-62 61q-74 76 -224 227t-374 379z" />
<glyph unicode="M" d="M0 894h782q30 94 91 280t151 464q30 -92 91 -278t151 -466h782q-78 -56 -236 -171t-396 -289q30 -92 90 -279t150 -465q-78 58 -236 173t-396 287q-78 -58 -236 -173t-396 -287q30 92 90 279t150 465q-78 58 -236 173t-396 287z" />
<glyph unicode="N" d="M190 -221q-4 13 -4 28q0 41 32 95q10 16 38 28t60 -4t34 -49t-10 -49q-20 -26 10 -40t54 0q42 22 75 40t71 58q-22 68 -22 174v18q2 118 92 256q116 178 304 381t240 253q4 14 8 29t8 29q18 62 32 122t14 100q0 58 13 137t23 137q4 22 8 43t4 25q0 24 17 40t39 16 q8 0 27 -8t33 -44q4 -8 8 -22t8 -32q6 -24 24 -79t36 -57h2q58 -10 93 -27t63 -33q14 -10 27 -17t27 -13q44 -16 128 -36t86 -20l20 -4l-2 -20q0 -2 -4 -53t-14 -87q-10 -44 -72 -59t-128 -21q-6 0 -11 -1t-9 -1q-54 -6 -78 -19t-44 -55l-6 -12q-16 -38 -21 -52t-11 -44 q65 -106 65 -222v-17q-5 -125 -81 -227q-2 -60 -5 -129t-5 -119v-30q-3 -37 -3 -73t3 -71q6 -70 10 -96q6 0 14 -2t14 -2q30 -4 66 -16t48 -52q6 -18 3 -36t-15 -32q-20 -28 -58 -40t-60 -12h-2q-32 0 -76 6t-64 38q-16 26 -38 67t-34 67q-18 34 -26 69t-10 75q-1 11 -1 36 v29q1 49 1 131q-14 -6 -30 -13t-32 -13h-4l-10 -5t-12 -7q3 -16 3 -34q0 -50 -22 -105q-29 -75 -61 -115q-20 -22 -75 -32t-97 -16h2q26 -8 75 -30t69 -26q16 -2 29 -4t23 -2q34 -6 55 -33t23 -55q2 -24 -11 -43t-37 -27q-22 -6 -49 -11t-51 -5q-38 0 -65 10t-41 30 q-22 6 -77 19t-137 31l-24 -4t-22 -2q-30 0 -52 10t-34 28q-2 2 -4 5t-2 5q-32 -24 -64 -41t-68 -31q-16 -6 -34 -9t-38 -3q-48 0 -92 18t-70 48q-16 20 -32 69z" />
<glyph unicode="O" d="M0 614q0 422 301 723t723 301t723 -301t301 -723t-301 -723t-723 -301t-723 301t-301 723z" />
<glyph unicode="P" d="M-18 1263q2 35 18 71t43 61t63 37q6 2 14 4t18 4q8 2 16 3t14 1q30 0 57 -8t51 -26q26 -16 43 -39t27 -53l538 -1480q10 -31 10 -62v-10q-2 -36 -18 -70t-42 -58t-62 -38q-6 -2 -14 -4t-18 -4q-8 -2 -17 -3t-15 -1q-28 0 -55 9t-51 25t-42 39t-28 51l-538 1480 q-12 32 -12 62v9zM382 1474l25 13t73 37q50 26 115 39t143 13q52 0 107 -9t113 -27q60 -18 121 -50t125 -78q40 -26 81 -47t85 -35q44 -12 91 -19t95 -7q50 0 105 7t115 21q58 14 122 34t132 46q0 -86 -41 -187t-121 -213q-80 -114 -182 -171t-224 -57q-8 0 -18 1t-20 1 q-12 2 -23 3t-21 3q-18 4 -35 7t-35 5q-18 0 -34 1t-30 1q-114 0 -206 -24t-162 -72t-106 -72l-36 -24z" />
<glyph unicode="Q" d="M40 254q0 80 20 157t56 145l550 814l550 -814q36 -68 56 -145t20 -157q0 -262 -184 -448t-442 -186t-442 186t-184 448zM1060 958q4 10 10 21t10 21l388 568l386 -568q24 -46 38 -99t14 -109q0 -182 -129 -312t-309 -130q-22 0 -44 2t-42 6q-10 64 -31 125t-51 117z" />
<glyph unicode="R" d="M20 342l324 326l334 -330l768 1126h490l-1228 -1810z" />
<glyph unicode="S" d="M392 996q0 250 186 428t446 178t446 -178t186 -428q0 -126 -51 -238t-139 -194q-22 -36 -47 -79t-37 -73q-20 -54 -19 -72l1 -18q-4 -54 -44 -92t-94 -38h-400q-52 0 -93 38t-43 92v18t-18 72q-10 28 -33 66t-45 72q-92 84 -147 199t-55 247zM744 -64q0 50 36 86t86 36 h316q50 0 86 -36t36 -86q0 -20 -6 -38t-18 -34q12 -14 18 -32t6 -38q0 -50 -36 -86t-86 -36h-20l-24 -78h-228l-24 78h-20q-50 0 -86 35t-36 87q0 18 6 37t18 33q-12 16 -18 34t-6 38z" />
<glyph unicode="T" d="M-2 1224h444q-2 34 -2 70v72h1164v-72t-2 -70h444q0 -324 -106 -558t-512 -246q-48 -66 -113 -110t-151 -64q0 -66 28 -148t116 -122h172v-256h-894v256h168q100 40 121 121q15 59 15 109q0 19 -2 38q-88 18 -156 63t-116 111q-406 8 -512 243t-106 563zM284 996 q0 -118 36 -204t176 -94q-16 68 -27 143t-17 155h-168zM718 976l152 -146l-36 -210l188 98l188 -98l-36 210l152 146l-210 32l-94 190l-94 -190zM1548 698q142 6 180 93t38 205h-174q-6 -80 -17 -155t-27 -143z" />
<glyph unicode="U" d="M0 350q0 148 77 269t199 181q-6 26 -9 54t-3 54q0 204 141 348t341 144q130 0 240 -66t172 -172q34 14 71 21t77 7q164 0 282 -120t118 -288q0 -22 -2 -44t-6 -42q148 -24 249 -142t101 -276q0 -174 -121 -298t-289 -126v-6h-1188v2q-188 16 -319 160t-131 340z" />
<glyph unicode="V" d="M454 420l764 1164l-128 -706h504l-824 -1274l160 816h-476z" />
<glyph unicode="W" d="M146 -250v760h4l-2 2l738 738l190 -192l-642 -642q-40 -40 -96 -40t-94 40l-28 28v-370l260 -254h362l-24 24q-40 40 -40 96t40 94l642 644l190 -190l-732 -734v-4h-4l-2 -2l-2 2h-760zM480 249q0 71 48 119l618 620l238 -238l-618 -620q-48 -50 -118 -50t-120 50 q-48 48 -48 119zM956 1320l132 132q52 54 129 54t131 -54l500 -500q54 -54 54 -131t-54 -131l-132 -132z" />
<glyph unicode="X" d="M26 278v420q0 370 264 634t636 264h192q372 0 636 -264t264 -634v-420q0 -188 -128 -325t-310 -153q-10 -82 -72 -138t-146 -56q-52 0 -96 22t-74 58q-30 -36 -74 -58t-96 -22t-96 22t-74 58q-30 -36 -74 -58t-96 -22q-84 0 -146 56t-72 138q-182 16 -310 153t-128 325z M416 406q0 -90 64 -154t154 -64t154 64t64 154t-64 154t-154 64t-154 -64t-64 -154zM1192 406q0 -90 64 -154t154 -64t155 64t65 154t-65 154t-155 64t-154 -64t-64 -154z" />
<glyph unicode="a" d="M0 894h782q30 94 91 280t151 464q30 -92 91 -278t151 -466h782q-78 -56 -236 -171t-396 -289q30 -92 90 -279t150 -465q-78 58 -236 173t-396 287q-78 -58 -236 -173t-396 -287q30 92 90 279t150 465q-78 58 -236 173t-396 287zM252 814q60 -44 180 -131t298 -219 q-22 -68 -68 -208t-116 -350q60 42 180 129t298 217q60 -42 180 -129t298 -217q-22 70 -68 210t-116 348l180 132t298 218h-590q-22 70 -68 210t-114 350q-22 -70 -68 -210t-114 -350h-590z" />
<glyph unicode="b" d="M0 1106q0 8 1 15t1 13v26q10 102 54 187t120 153q76 70 165 104t191 34q82 0 157 -22t141 -68q66 -44 115 -103t79 -133q32 74 80 133t114 103q68 46 142 68t156 22q102 0 191 -34t165 -104q78 -68 121 -153t53 -187q2 -6 2 -13v-13v-28q0 -66 -11 -131t-33 -127 t-51 -118t-67 -108q-38 -50 -80 -99t-88 -97q-46 -46 -94 -92t-100 -90t-101 -87t-95 -85q-46 -40 -90 -83t-84 -89q-22 -24 -41 -47t-35 -45t-29 -44t-25 -42q-22 42 -54 87t-74 91q-40 46 -84 90t-92 84q-46 40 -94 82t-100 86q-52 46 -101 92t-95 92q-46 48 -88 97 t-80 99q-36 52 -65 109t-51 119q-12 32 -20 63t-14 63t-9 65t-3 65zM82 1106q0 -66 13 -130t37 -126q26 -62 58 -118t70 -104q40 -48 86 -97t98 -101t104 -98t102 -88q50 -40 100 -86t102 -98q54 -50 97 -98t75 -92q34 44 77 92t95 98q52 52 103 98t101 86q50 42 101 88 t103 98q54 52 100 101t84 97q40 48 72 104t56 118q26 62 38 126t12 130v24v11t-2 9q-8 88 -45 160t-101 130t-139 87t-163 29q-70 0 -133 -19t-119 -57t-97 -88t-67 -112q-12 -30 -31 -75t-45 -105q-8 22 -27 67t-49 113q-24 62 -65 112t-99 88q-56 38 -119 57t-133 19 q-86 0 -162 -29t-140 -87t-100 -130t-46 -160v-9t-2 -11v-24z" />
<glyph unicode="c" d="M-4 -138q2 30 16 61t38 63t58 55t78 35q52 20 101 40t93 38q44 20 85 38t77 34q10 4 20 9t20 9q12 6 23 13t21 13t19 11t15 9q8 6 15 10t11 6v12q0 12 -3 34t-7 54h54q-10 14 -19 31t-17 35q-6 18 -11 38t-9 42q-16 12 -28 26t-22 32q-8 18 -13 40t-7 46v8t-2 10 q0 6 -2 12t-4 14q-6 26 -8 48t0 42t8 38t16 32l-24 72q-4 24 -7 51t-7 55q-1 11 -1 24q0 19 2 43q3 39 9 87q4 24 9 45t11 39q8 20 16 35t18 27t21 22t21 18q12 8 26 12t28 6q16 28 45 48t69 34q42 14 86 20t88 6q36 0 71 -4t67 -14q34 -8 65 -21t61 -31t55 -42t43 -56 q20 -32 33 -69t17 -79q6 -40 9 -78t3 -74q1 -24 1 -48v-24q-1 -36 -5 -70l8 -8l4 -4t2 -4q14 -18 21 -40t7 -50t-6 -60t-18 -70q-6 -24 -14 -46t-18 -40t-23 -31t-27 -23q-2 -24 -6 -47t-12 -43q-6 -18 -14 -35t-20 -31q12 -2 31 -5t45 -7q0 -10 -3 -29t-9 -49q0 -2 -1 -8 t-3 -14q20 -10 38 -20t36 -18q18 -6 35 -12t33 -12q46 -12 89 -25t81 -27q40 -14 75 -29t67 -31q46 -20 81 -43t57 -47q24 -24 37 -49t13 -51q6 -32 9 -63t5 -61q4 -32 5 -65t1 -65v-78h-2052v268zM74 -146v-182h1896q0 34 -1 66t-3 64q-2 30 -6 59t-10 57q0 28 -33 59 t-101 63q-66 32 -143 60t-165 52q-14 4 -29 9t-31 11l-28 12t-26 12q-10 6 -21 12t-21 12q-8 6 -15 11t-11 7l-12 6q-2 2 -4 8t-2 16t1 19t1 19q2 4 2 8v10q-8 2 -26 5t-46 7q0 12 -2 35t-6 57q18 6 32 21t22 39t12 47t4 43v40q2 0 4 -1t4 -1t4 -1l2 -1q10 0 19 7t17 21 q10 14 16 27t8 25q2 4 4 10t4 14q8 24 12 44t6 36q2 18 2 30t-2 20t-5 15t-9 11q-4 6 -8 9t-8 3q-2 2 -4 2h-4h-8q6 30 9 66t3 78t-1 75t-5 59q0 10 -2 23t-4 29q-4 44 -20 81t-44 65q-26 30 -56 50t-64 30q-18 6 -36 11t-36 7t-38 3t-40 1q-36 0 -66 -3t-56 -9t-46 -16 t-36 -24q-8 -8 -13 -15t-7 -15t0 -15t6 -15q-4 2 -9 3t-9 1q-4 2 -9 2h-11q-24 0 -42 -10t-32 -30q-12 -18 -20 -41t-12 -51q-2 -26 -4 -54t-2 -56q2 -28 3 -51t3 -43q2 -6 3 -15t3 -23q4 -14 13 -41t23 -67q-16 -10 -25 -22t-13 -26q-2 -14 0 -31t8 -37l4 -20t4 -18t3 -14 t1 -12q2 -20 5 -35t9 -27q6 -10 15 -16t21 -6q2 2 5 2h7q2 -22 4 -43t6 -41q6 -18 11 -32t11 -24t11 -18t11 -14q8 -6 13 -10t9 -6q2 0 4 -1t4 -3q4 -20 5 -36t1 -28v-28l-4 -4h-68q2 -6 2 -14t-2 -18q0 -8 -1 -16t-3 -14v-5t-2 -7q-20 -8 -43 -21t-49 -29q-24 -14 -47 -27 t-43 -23q-36 -16 -76 -34t-86 -38q-44 -18 -81 -33t-65 -27q-8 -2 -22 -7t-34 -13q-18 -6 -33 -13t-29 -17t-24 -20t-16 -18t-12 -18t-10 -20t-7 -18t-3 -12q0 -2 -1 -4l-1 -2v-4t-2 -2z" />
<glyph unicode="d" d="M0 -286v778q0 18 6 32t18 26t27 18t31 6h246q18 0 32 -6t26 -18t18 -26t6 -32v-778q0 -18 -6 -33t-18 -27t-26 -17t-32 -5h-246q-16 0 -31 5t-27 17t-18 27t-6 33zM82 -286h246v778h-246v-778zM492 -308v840h40q14 0 28 5t28 15q16 12 33 29t37 39q20 24 42 60t46 82 q24 48 49 104t51 122q6 14 14 28t18 26q12 14 21 24t17 16l9 9t11 9q8 6 15 11t15 11q24 20 44 40t34 42q16 24 31 61t27 87q6 24 12 53t10 61q4 34 7 70t5 76q0 12 10 18t30 8q4 2 7 2h5q18 0 38 -5t44 -15q14 -6 26 -13t22 -17q12 -8 23 -19t19 -23q24 -32 37 -74t17 -96 q1 -18 1 -36q0 -35 -5 -68q-8 -50 -28 -96q-2 -4 -14 -30t-36 -72q-24 -44 -40 -83t-26 -71q-4 -16 -6 -31t-2 -27t3 -22t7 -20q116 6 208 7h36q70 0 124 -3q70 -2 115 -8t67 -16q22 -8 45 -30t47 -58q24 -34 35 -63t9 -53q0 -8 -8 -23t-24 -37q-16 -20 -25 -34t-11 -22 q0 -12 8 -32t24 -48q18 -28 28 -48t10 -30t-11 -27t-33 -43q-22 -24 -33 -40t-11 -26t5 -29t15 -47q12 -28 17 -47t5 -29q0 -16 -13 -38t-39 -48t-41 -42t-19 -22q-2 -8 -3 -24t-1 -40t-1 -40t-3 -24q-8 -18 -26 -39t-46 -45t-51 -40t-43 -22q-38 -12 -100 -17t-150 -5 t-167 2t-149 8q-22 2 -56 5t-80 7q-54 10 -161 30t-269 50zM574 -240q44 -8 133 -25t223 -41h678q14 6 29 18t33 28t29 29t15 23l-1 3t-1 9t-1 16t-1 24q0 12 1 23t3 21t5 19t7 17q6 12 20 28t34 38q22 20 34 33t14 17q0 2 -4 12t-12 26q-8 18 -14 45t-12 61v10q2 8 3 15 t3 15t5 14t7 12q4 8 9 15t11 15t13 16t15 16l10 10q4 4 5 6l1 2q0 2 -3 7t-9 11q-4 6 -7 12t-7 12t-9 15t-11 23q-4 14 -9 31t-9 35v16q2 4 3 8t1 6l4 16q8 20 16 35t16 23q8 10 15 16t13 6v4v3t-2 3q-4 16 -10 29t-14 25t-19 24t-23 22q0 2 -1 3l-1 1q0 2 -1 2h-3l-6 6 q0 2 -1 3t-3 1q-8 4 -31 7t-61 5q-36 2 -85 3t-113 1h-60t-58 -2h-55t-55 -2q-12 6 -30 16t-44 24q-2 6 -4 11t-4 11l-4 12t-4 10l-4 20v20q0 28 6 58t18 62q12 34 28 69t36 71q10 18 17 33t13 25q6 12 9 19t3 9q8 18 13 35t9 33q4 18 5 36t1 38q0 24 -2 46t-8 40 q-4 18 -12 34t-18 28q-6 10 -15 18t-19 14q-10 8 -21 13t-25 7q-8 -108 -25 -189t-41 -135q-24 -52 -57 -95t-75 -77q-20 -14 -35 -27t-27 -25q-10 -12 -18 -24t-12 -22q-44 -112 -89 -200t-89 -152q-42 -62 -85 -100t-87 -50v-696zM1828 36q2 2 2 3v1v4l-1 -1t-1 -3v-4z M1868 330l1 -2l3 -6l1 1q1 1 1 3v2q2 4 2 7v5l2 2v2l-2 -2v-2v-1t-2 -3l-2 -2zM1872 322h2v-2v4z" />
<glyph unicode="e" d="M0 1146q0 42 15 79t45 67t66 45t78 15t79 -15t67 -45t45 -67t15 -79q0 -18 -3 -35t-9 -33t-15 -32t-23 -30q36 -40 90 -99t124 -139q14 58 40 172t64 286q-32 12 -58 31t-46 45q-20 28 -31 58t-11 64q0 42 15 78t45 66q32 30 68 45t78 15t78 -15t66 -45t45 -66t15 -78 q0 -26 -6 -51t-20 -49q-14 -22 -31 -41t-39 -33q30 -76 75 -192t103 -270q22 58 67 174t111 288q-20 14 -38 33t-32 41q-12 24 -19 49t-7 51q0 42 15 78t45 66t66 45t78 15t79 -15t67 -45t45 -66t15 -78q0 -34 -10 -64t-32 -58q-20 -26 -46 -45t-58 -31q18 -76 44 -190 t60 -268q28 30 81 90t133 148q-12 14 -22 30t-16 32t-9 33t-3 35q0 42 15 79t45 67q32 30 68 45t78 15t78 -15t66 -45t45 -67t15 -79q0 -40 -14 -75t-44 -65q-28 -30 -62 -46t-76 -18q-38 -108 -97 -272t-137 -384h-1188q-28 82 -87 246t-147 410q-40 2 -75 18t-63 46 t-43 65t-15 75zM82 1146q0 -24 9 -45t25 -39q18 -18 38 -27t44 -11h24t32 -2l1 -1q1 -1 1 -3q6 6 17 19t27 31q8 10 13 19t7 17q4 10 6 21t2 21q0 26 -9 48t-27 40t-40 27t-48 9q-24 0 -46 -9t-40 -27t-27 -40t-9 -48zM254 1014q2 0 3 -2l3 -6q0 2 -1 5t-3 7v-1q0 -1 -2 -3z M260 1006q28 -80 85 -239t143 -399h1072q30 80 87 240t141 398q-44 -50 -134 -150t-224 -250l-54 240t-92 400q-32 -84 -97 -253t-163 -421q-32 84 -97 253t-163 421l-54 -240t-92 -400q-44 50 -134 150t-224 250zM430 -122v286h1188v-286h-1188zM512 -40h1024v122h-1024 v-122zM614 1434q0 -20 6 -39t18 -35q14 -16 29 -27t33 -17q8 -2 21 -6t33 -10l18 12t30 18q16 10 27 21t17 23q8 14 11 29t3 31q0 26 -9 47t-27 39t-39 27t-47 9t-48 -9t-40 -27t-27 -39t-9 -47zM746 1294q2 -6 7 -18t11 -30q2 6 4 18t6 30q-2 2 -7 3t-13 3l-2 -2t-6 -4z M1188 1434q0 -16 4 -31t10 -29q8 -12 19 -23t25 -21q6 -4 18 -11t30 -19q8 2 21 6t33 10q18 6 34 17t28 27t18 35t6 39q0 26 -9 47t-27 39t-40 27t-48 9q-24 0 -46 -9t-40 -27t-27 -39t-9 -47zM1274 1294q2 -6 4 -18t6 -30q2 6 7 18t11 30q0 2 -2 3l-6 3q-2 0 -7 -2t-13 -4z M1720 1146q0 -10 2 -21t6 -21q4 -8 9 -17t11 -19q8 -8 19 -21t25 -29l1 1q1 1 1 3q8 0 22 1t34 1q24 2 45 11t37 27q18 18 26 39t8 45q0 26 -9 48t-27 40t-39 27t-47 9t-48 -9t-40 -27t-27 -40t-9 -48zM1788 1006q2 2 3 4t3 4v1q0 1 -2 3q0 -2 -1 -5t-3 -7z" />
<glyph unicode="f" d="M6 -228q2 18 6 34t10 30t13 26t17 24q8 6 19 14t27 16t36 17t42 19q52 22 93 42t69 38q30 20 58 45t56 55q24 24 40 43t22 33q8 16 19 53t25 93q10 38 19 70t15 58q8 26 15 47t13 37q30 74 66 138t80 116q44 54 96 95t112 71q30 14 63 27t69 23q38 10 79 19t85 17 q32 6 53 11t31 7q12 4 21 9t15 11t11 14t9 16q4 10 5 20t-1 20q0 10 -2 24t-8 32q-4 20 -10 42t-16 48q-8 28 -15 52t-13 44q-4 20 -6 37t-4 29v29v23q2 10 4 18t6 12q2 4 5 6t5 4q4 2 7 2h7t11 -2t15 -6q10 -4 22 -9t26 -13q32 -16 57 -26t43 -14t36 -3t36 5q10 4 20 10 t22 14q14 8 27 20t27 26q10 12 19 20t15 14q8 6 13 10t7 4q6 4 12 5t12 1t12 -1t10 -5q10 -2 17 -9t9 -17q4 -10 8 -30t8 -50q2 -18 5 -38t5 -40q4 -20 7 -42t7 -44q4 -16 6 -30t2 -26v-7t-2 -7q-2 -10 -9 -22t-21 -26q-20 -22 -31 -43t-15 -41t-1 -48t11 -64l8 -32t6 -32 q4 -16 5 -32t1 -32q0 -32 -5 -57t-15 -45q-8 -20 -28 -47t-52 -61q-10 -12 -20 -22t-18 -20l-12 -16t-10 -14q-20 -28 -36 -63t-28 -75q-10 -38 -15 -82t-5 -94q0 -48 6 -88t16 -72q12 -30 32 -61t50 -63q10 -8 17 -16t11 -14t7 -10t3 -6q4 -8 6 -15t2 -15t-3 -16t-7 -16 t-8 -14t-10 -10t-12 -5t-14 -1q-24 -2 -54 15t-66 51q-34 34 -60 70t-42 74q-2 6 -4 14l-4 16q-2 10 -3 20t-3 20q0 16 -2 29t-6 23q-2 10 -6 17t-8 11q-4 8 -11 13t-17 9q-8 4 -18 5t-22 1q-6 2 -12 2t-12 -2q-4 0 -9 -2t-9 -6q-12 -6 -27 -21t-33 -39t-34 -52t-32 -58 q-8 -18 -15 -32t-11 -24t-5 -15t-1 -7h14q6 0 15 -1t19 -3q32 -2 53 -6t31 -10q12 -6 19 -19t9 -33h2l-2 -2v-14q0 -4 1 -10t1 -16h-40l-2 -2v2h2q6 4 15 14t23 26v2h-42v-18q0 -4 1 -10t1 -14h-294q-42 0 -125 -1t-209 -1q-2 2 -6 5t-10 9q-18 14 -36 22t-36 8t-43 -6 t-57 -18t-63 -24t-59 -22q-28 -12 -52 -22t-46 -18q-20 -10 -38 -21t-34 -23q-16 -14 -26 -25t-14 -21q-4 -12 -4 -24t4 -24q6 -14 17 -30t29 -34q10 -10 17 -18t11 -12q6 -6 8 -10l2 -4q0 -4 -3 -7t-9 -5q-4 -2 -11 -3t-17 1l1 -1l1 -1v-4v3v1q-2 0 -3 1l-1 1h-4t-4 2h-5 t-5 2q-4 0 -10 2t-12 6q-6 2 -13 5t-17 9q-28 14 -49 30t-35 36q-10 16 -16 35t-6 41v12zM46 -236v-4q0 -16 5 -30t15 -26q10 -14 25 -26t35 -22q-8 10 -14 21t-10 21t-6 20l-4 20l1 1q1 1 1 3v6q0 2 1 6t1 8q2 2 3 6t1 8l6 12q2 2 3 5t3 7q10 12 22 23t26 23q16 10 35 21 t41 23q18 8 41 17t51 21q28 10 60 23t68 27q18 6 34 10t30 8t26 6t22 2q14 0 28 -3t26 -7q14 -6 26 -13t22 -17l4 -4h120t200 2h292q0 6 -2 11t-6 7q-2 2 -7 3l-15 3h-16q-6 0 -12 1t-14 3q-32 2 -51 6t-25 10t-9 14t-3 16q0 2 1 3t1 3v6q2 6 5 13t7 17q4 12 10 25t14 29 q18 34 36 63t36 55q20 26 37 43t31 25q4 2 6 4t4 2q2 2 4 2h2l16 4q4 2 9 2h9h16h10t8 -2h8t6 -2q10 -2 19 -5t17 -9q8 -4 15 -10t13 -16q4 -4 8 -9t6 -11q4 -6 6 -12t4 -14q2 -4 3 -9t3 -13q2 -6 3 -15t1 -19q2 -8 3 -17t1 -17q2 -6 4 -13t4 -13q12 -30 32 -60t48 -58 t51 -45t41 -21h12q2 0 3 2l3 6v2q2 0 2 1v3l1 2q1 2 1 4v14l-2 3q-2 3 -6 7t-10 11t-14 15q-32 34 -55 68t-37 68q-12 36 -19 80t-7 96t6 100t18 90t28 79t38 69q4 6 11 14t15 16q8 10 18 21t22 25q30 32 48 55t24 39q8 16 12 38t4 50q0 14 -1 29t-3 29q-2 16 -6 31t-8 29 q-2 16 -5 29t-5 23q-2 12 -3 23t-1 19q0 20 4 38t10 34q8 16 19 33t25 33l12 12l4 4t2 4q2 2 3 5t1 5q2 2 2 4v4v8t-2 10q0 6 -1 13t-3 15q-4 24 -8 46t-8 42q-4 22 -7 42t-5 38q-2 16 -3 29t-3 21q-2 10 -4 16t-4 8h-2v2h-4h-1q-1 0 -1 -2h-6q-2 -2 -6 -5t-10 -9 q-4 -6 -11 -13t-17 -15q-16 -16 -31 -29t-29 -23t-28 -18t-26 -12l-24 -4q-6 0 -12 -1t-12 -1q-14 0 -30 3t-36 9q-18 6 -40 16t-46 22q-8 6 -16 9t-16 5q-6 4 -10 6t-8 2v-10q0 -2 -1 -5t-1 -7l1 -2q1 -2 1 -6v-16q2 -12 5 -27l7 -35t11 -43t15 -49q10 -28 16 -51t10 -43 q6 -20 8 -36t2 -28v-24q0 -6 -1 -11t-3 -11t-5 -13t-7 -15q-2 -6 -7 -12t-11 -12q-2 -4 -6 -7t-10 -7q-4 -4 -10 -7t-12 -5l-15 -5t-23 -7q-12 -2 -29 -5t-37 -7q-44 -6 -84 -15t-76 -21q-36 -10 -67 -22t-57 -26q-56 -28 -106 -66t-92 -88t-76 -111t-60 -133 q-6 -14 -13 -35t-15 -47t-16 -57t-18 -69q-14 -58 -26 -96t-22 -56q-8 -16 -24 -38t-42 -50q-32 -34 -64 -60t-64 -46q-30 -20 -71 -41t-93 -41q-20 -10 -38 -18t-34 -14q-14 -8 -24 -15t-16 -13q-6 -8 -12 -17t-10 -19t-6 -22t-4 -26v-4t-2 -2zM1372 1540h4h3t1 -2v4 q0 2 1 3l1 1l-3 -2t-7 -4z" />
<glyph unicode="g" />
<glyph unicode="m" d="M0 894h782q30 94 91 280t151 464q30 -92 91 -278t151 -466h782q-78 -56 -236 -171t-396 -289q30 -92 90 -279t150 -465q-78 58 -236 173t-396 287q-78 -58 -236 -173t-396 -287q30 92 90 279t150 465q-78 58 -236 173t-396 287zM252 814q60 -44 180 -131t298 -219 q-22 -68 -68 -208t-116 -350q60 42 180 129t298 217q60 -42 180 -129t298 -217q-22 70 -68 210t-116 348l180 132t298 218h-590q-22 70 -68 210t-114 350q-22 -70 -68 -210t-114 -350h-590z" />
<glyph unicode="n" d="M190 -221q-4 13 -4 28q0 41 32 95q8 12 25 22t39 10q8 0 17 -2t17 -6q32 -16 34 -49t-10 -49q-16 -20 0 -33t38 -13q6 0 13 2t13 4q42 22 75 40t71 58q-22 68 -22 174v18q2 118 92 256q116 178 304 381t240 253q4 14 8 29t8 29q18 62 32 122t14 100q0 58 13 137t23 137 q4 22 8 43t4 25q0 24 17 40t39 16q8 0 27 -8t33 -44q4 -8 8 -22t8 -32q6 -24 24 -79t36 -57h2q58 -10 93 -27t63 -33q14 -10 27 -17t27 -13q44 -16 128 -36t86 -20l20 -4l-2 -20q0 -2 -4 -53t-14 -87q-10 -44 -72 -59t-128 -21q-6 0 -11 -1t-9 -1q-54 -6 -78 -19t-44 -55 l-6 -12q-16 -38 -21 -52t-11 -44q65 -106 65 -222v-17q-5 -125 -81 -227q-2 -60 -5 -129t-5 -119v-30q-3 -37 -3 -73t3 -71q6 -70 10 -96q6 0 14 -2t14 -2q30 -4 66 -16t48 -52q6 -18 3 -36t-15 -32q-20 -28 -58 -40t-60 -12h-2q-32 0 -76 6t-64 38q-16 26 -38 67t-34 67 q-18 34 -26 69t-10 75q-1 11 -1 36v29q1 49 1 131q-14 -6 -30 -13t-32 -13h-4l-10 -5t-12 -5v-2q3 -16 3 -34q0 -50 -22 -105q-29 -75 -61 -115q-20 -22 -75 -32t-97 -16h2q26 -8 75 -30t69 -26q16 -2 29 -4t23 -2q34 -6 55 -33t23 -55q2 -24 -11 -43t-37 -27 q-22 -6 -49 -11t-51 -5q-38 0 -65 10t-41 30q-22 6 -77 19t-137 31l-24 -4t-22 -2q-30 0 -52 10t-34 28q-2 2 -4 5t-2 5q-32 -24 -64 -41t-68 -31q-16 -6 -34 -9t-38 -3q-48 0 -92 18t-70 48q-16 20 -32 69zM238 -214q2 -16 9 -27t11 -17q20 -24 54 -37t72 -13q16 0 29 2 t25 6q40 16 68 31t52 35l48 38l26 -56v-4q6 -8 18 -12t30 -4q8 0 17 1t17 3l12 4l10 -4q58 -12 123 -27t95 -23l14 -4l10 -12q6 -10 24 -16t44 -6q20 0 43 4t43 10q8 2 11 8t3 14q0 10 -10 24t-28 18q-10 2 -23 4t-27 4q-16 2 -37 10t-53 22q-14 6 -30 12t-28 10h-6 q-18 2 -31 16t-13 32t13 32t31 16h10q84 10 111 20t29 12q14 18 28 44t24 54q12 34 16 64t0 52l-4 30q-8 30 -19 49t-39 51q-6 8 -5 18t7 16q8 6 18 6t16 -8q28 -34 42 -55t22 -49q4 2 7 3t7 3l4 2q18 6 32 12l28 12l70 30l-2 -74q-1 -68 -1 -109v-34q1 -41 1 -51 q2 -34 9 -65t21 -59q12 -24 34 -65t36 -65q4 -6 12 -10t22 -6q16 -4 34 -5t32 -1h2q16 0 42 8t38 24q4 6 5 12t-1 14q-2 6 -6 12t-16 10q-12 6 -26 8t-26 4t-20 3t-14 3l-28 10l-6 26q-6 28 -12 101q-3 36 -3 74t3 77l2 30q0 50 3 119t5 127v16l10 12q32 44 51 96t21 106v13 q0 48 -13 95q-15 54 -45 104l-10 14l4 18q6 34 12 51t24 57l6 12v2q10 20 24 40t38 34q18 12 42 17t54 9h11t9 2q32 2 63 7t57 11q16 6 27 12t13 12q6 22 10 55t6 57q-34 8 -99 24t-103 30q-16 6 -31 15t-31 17q-24 16 -55 31t-83 23q-16 2 -30 12t-24 30q-6 8 -11 20t-9 26 q-10 24 -16 48t-10 36q-4 14 -8 27t-6 19l-2 2v2q-4 10 -8 15t-6 5t-5 -2t-3 -6q0 -8 -3 -24t-9 -54q-12 -56 -24 -132t-12 -132q0 -44 -15 -107t-33 -129q-2 -12 -6 -27t-8 -29l-4 -14l-10 -8q-52 -52 -238 -251t-298 -375h-2q-80 -124 -84 -230q-1 -16 0 -32 q0 -85 18 -144l10 -26l-20 -22q-34 -38 -65 -57t-65 -37l-14 -7t-12 -7q-12 -6 -24 -9t-26 -3q-28 0 -52 13t-34 35q-8 18 -6 38t16 36q0 2 1 8t-1 10l-3 6t-5 2q-2 2 -6 3t-6 1q-8 0 -15 -4t-7 -6q-16 -24 -21 -46q-3 -12 -3 -24q0 -10 2 -20z" />
<glyph unicode="o" d="M0 614q0 422 301 723t723 301t723 -301t301 -723t-301 -723t-723 -301t-723 301t-301 723zM86 614q0 -386 276 -662t662 -276t662 276t276 662t-276 662t-662 276t-662 -276t-276 -662z" />
<glyph unicode="p" d="M-18 1263q2 35 18 71t43 61t63 37q6 2 14 4t18 4q8 2 16 3t14 1q30 0 57 -8t51 -26q26 -16 43 -39t27 -53l538 -1480q10 -31 10 -62v-10q-2 -36 -18 -70t-42 -58t-62 -38q-6 -2 -14 -4t-18 -4q-8 -2 -17 -3t-15 -1q-28 0 -55 9t-51 25t-42 39t-28 51l-538 1480 q-12 32 -12 62v9zM55 1256q0 -18 7 -38v-2l538 -1480q6 -18 17 -31t25 -23q16 -12 32 -17t34 -5h7t11 2t12 3t10 3q22 8 37 23t27 35q10 22 11 44t-7 44l-538 1480v2q-6 18 -16 31t-26 25q-16 10 -33 15t-35 5h-7t-9 -2q-6 0 -12 -2t-10 -4q-22 -8 -38 -23t-26 -37 q-11 -24 -11 -48zM382 1474l25 13t73 37q50 26 115 39t143 13q52 0 107 -9t113 -27q60 -18 121 -50t125 -78q40 -26 81 -47t85 -35q44 -12 91 -19t95 -7q50 0 105 7t115 21q58 14 122 34t132 46q0 -86 -41 -187t-121 -213q-80 -114 -182 -171t-224 -57q-8 0 -18 1t-20 1 q-12 2 -23 3t-21 3q-18 4 -35 7t-35 5q-18 0 -34 1t-30 1q-114 0 -206 -24t-162 -72t-106 -72l-36 -24zM474 1440l296 -716l66 46q40 28 87 48t99 34q50 12 107 19t117 7q16 0 33 -1t37 -1q20 -2 39 -5t39 -9l38 -4q8 0 16 -1t14 -1q104 0 191 49t157 149q48 68 81 131 t51 119q-40 -12 -77 -23t-73 -19q-64 -16 -123 -23t-113 -7t-106 7t-102 23q-48 14 -95 38t-91 54q-58 42 -115 72t-109 46q-54 16 -104 24t-96 8q-70 0 -127 -11t-97 -33z" />
<glyph unicode="q" d="M40 254q0 80 20 157t56 145l550 814l550 -814q36 -68 56 -145t20 -157q0 -262 -184 -448t-442 -186t-442 186t-184 448zM110 254q0 -58 11 -113t33 -107q20 -50 50 -95t70 -85q38 -38 82 -68t94 -52t105 -33t111 -11t110 11t106 33q48 22 93 52t83 68q38 40 68 85t52 95 q22 52 33 107t11 113q0 36 -5 71t-13 69q-8 32 -20 64t-28 62l-490 724l-490 -726q-16 -28 -28 -60t-20 -64q-10 -34 -14 -69t-4 -71zM1060 958q4 10 10 21t10 21l388 568l386 -568q24 -46 38 -99t14 -109q0 -182 -129 -312t-309 -130q-22 0 -44 2t-42 6q-10 64 -31 125 t-51 117zM1140 964l218 -326l2 -2l2 -4q28 -50 47 -103t31 -107q8 -2 14 -2h14q72 0 140 28t120 80q52 54 80 122t28 142q0 44 -11 89t-31 83l-326 480z" />
<glyph unicode="r" d="M20 342l324 326l334 -330l768 1126h490l-1228 -1810zM122 342l574 -576l1104 1626h-316l-746 -1094l-48 -72l-62 60l-284 280z" />
<glyph unicode="s" d="M392 996q0 250 186 428t446 178t446 -178t186 -428q0 -126 -51 -238t-139 -194q-22 -36 -47 -79t-37 -73q-20 -54 -19 -72l1 -18q-4 -54 -44 -92t-94 -38h-400q-52 0 -93 38t-43 92v18t-18 72q-10 28 -33 66t-45 72q-92 84 -147 199t-55 247zM468 996q0 -56 12 -110 t36 -104q22 -50 55 -94t75 -80l8 -8l4 -8q34 -50 55 -89t29 -67q14 -36 20 -65t4 -51q4 -22 21 -37t39 -15h400q22 0 39 16t23 38q-2 20 4 49t18 65q10 30 34 72t60 96l4 8l6 6q40 38 70 80t52 90q22 50 33 102t11 106t-11 105t-33 101q-20 46 -50 89t-68 79t-83 65t-93 49 q-52 20 -107 31t-111 11t-111 -11t-107 -31q-48 -20 -93 -49t-83 -65t-68 -79t-50 -89q-22 -50 -33 -101t-11 -105zM744 -64q0 50 36 86t86 36h316q50 0 86 -36t36 -86q0 -20 -6 -38t-18 -34q12 -14 18 -32t6 -38q0 -50 -36 -86t-86 -36h-20l-24 -78h-228l-24 78h-20 q-50 0 -86 35t-36 87q0 18 6 37t18 33q-12 16 -18 34t-6 38zM820 -64q0 -10 3 -17t5 -11l32 -44l-32 -44q-2 -4 -5 -11t-3 -15q0 -20 14 -33t32 -13h76l18 -54l6 -24h116l6 24l18 54h76q18 0 32 13t14 33q0 8 -3 15t-5 11l-32 44l32 44q2 4 5 11t3 17q0 18 -14 32t-32 14 h-316q-18 0 -32 -14t-14 -32z" />
<glyph unicode="t" d="M-2 1224h444q-2 34 -2 70v72h1164v-72t-2 -70h444q0 -324 -106 -558t-512 -246q-48 -66 -113 -110t-151 -64q0 -66 28 -148t116 -122h172v-256h-894v256h168q100 40 121 121q15 59 15 109q0 19 -2 38q-88 18 -156 63t-116 111q-406 8 -512 243t-106 563zM64 1158 q2 -70 7 -127t13 -105q10 -72 29 -129t47 -103q28 -48 68 -85t92 -63q28 -14 60 -25t68 -17q38 -10 81 -14t89 -6h32l20 -26q44 -60 102 -97t130 -53l46 -10l6 -46q4 -30 3 -58q0 -19 -1 -37q-4 -45 -18 -83q-10 -26 -24 -49t-34 -43t-45 -38t-55 -30l-12 -4h-116v-124h762 v124h-120l-14 6q-28 12 -51 29t-43 39q-16 20 -30 42t-24 46q-16 38 -25 82t-9 92v52l52 12q70 16 126 53t98 95l20 26l32 2q90 2 165 18t133 46q52 26 92 63t68 87q28 44 47 101t29 127q8 48 13 105t7 125h-444v66q0 18 1 37t1 39h-1032q0 -20 1 -39t1 -37v-66h-444z M218 996v66h296l4 -60q6 -84 17 -156t25 -132l22 -88l-90 6q-80 4 -139 37t-91 91q-30 52 -37 115t-7 121zM284 996q0 -118 36 -204t176 -94q-16 68 -27 143t-17 155h-168zM1462 628l22 86q14 60 25 132t17 156l4 60h302v-66q0 -58 -8 -122t-38 -116q-34 -58 -93 -90 t-143 -36zM1548 698q142 6 180 93t38 205h-174q-6 -80 -17 -155t-27 -143z" />
<glyph unicode="u" d="M0 350q0 148 77 269t199 181q-6 26 -9 54t-3 54q0 204 141 348t341 144q130 0 240 -66t172 -172q34 14 71 21t77 7q164 0 282 -120t118 -288q0 -22 -2 -44t-6 -42q148 -24 249 -142t101 -276q0 -174 -121 -298t-289 -126v-6h-1188v2q-188 16 -319 160t-131 340zM80 350 q0 -80 28 -154t82 -134q52 -56 121 -91t145 -41l18 -2h1084v4l78 2q66 0 127 26t107 74q48 50 73 112t25 132q0 62 -21 120t-61 104q-38 46 -91 76t-111 40l-82 12l16 82q4 18 6 35t2 35q0 66 -25 126t-69 106q-46 48 -105 72t-121 24q-32 0 -61 -5t-57 -17l-64 -26l-34 60 q-28 44 -64 81t-80 63q-46 26 -97 40t-103 14q-80 0 -154 -31t-130 -89q-28 -28 -50 -61t-36 -69q-16 -38 -24 -79t-8 -83q0 -22 2 -45t8 -45l14 -62l-56 -26q-52 -26 -94 -65t-74 -89t-48 -108t-16 -118z" />
<glyph unicode="v" d="M454 420l764 1164l-128 -706h504l-824 -1274l160 816h-476zM590 494h430l-18 -88l-86 -438l542 836h-456l16 88l62 348z" />
<glyph unicode="w" d="M146 -250v760h4l-2 2l738 738l190 -192l-642 -642q-20 -20 -45 -30t-51 -10t-50 10t-44 30l-40 40v-370l286 -278h360l-36 36q-40 40 -40 96t40 94l642 644l190 -190l-732 -734v-4h-4l-2 -2l-2 2h-760zM222 512l58 -60q12 -12 27 -18t31 -6q18 0 33 7t25 17l606 606 l-116 118zM480 249q0 71 48 119l618 620l238 -238l-618 -620q-24 -24 -55 -37t-63 -13t-63 13t-57 37q-48 48 -48 119zM532 249q0 -49 34 -83q16 -16 37 -25t45 -9q22 0 44 9t38 25l580 584l-164 164l-580 -582q-34 -34 -34 -83zM826 -61q0 -35 24 -59l58 -58l664 666 l-116 116l-606 -606q-24 -24 -24 -59zM956 1320l132 132q26 26 60 40t70 14t70 -14t60 -40l500 -500q54 -54 54 -131t-54 -131l-132 -132zM1030 1320l686 -688l94 94q40 40 40 95t-40 95l-498 500q-20 18 -44 28t-50 10t-51 -10t-43 -28z" />
<glyph unicode="x" d="M26 278v420q0 370 264 634t636 264h192q372 0 636 -264t264 -634v-420q0 -188 -128 -325t-310 -153q-10 -82 -72 -138t-146 -56q-52 0 -96 22t-74 58q-30 -36 -74 -58t-96 -22t-96 22t-74 58q-30 -36 -74 -58t-96 -22q-84 0 -146 56t-72 138q-182 16 -310 153t-128 325z M100 278q0 -76 28 -148t80 -126q52 -56 120 -90t142 -40l62 -4l6 -62q4 -26 16 -50t32 -42q18 -18 44 -27t52 -9q32 0 62 14t50 38l58 72l58 -72q20 -24 50 -38t62 -14t62 14t50 38l58 72l58 -72q20 -24 50 -38t62 -14q26 0 52 9t46 27q18 18 31 42t15 50l6 62l62 4 q74 6 142 40t120 90q52 54 80 126t28 148v420q0 82 -17 163t-49 157q-30 74 -75 140t-101 122q-56 58 -122 102t-140 76q-76 32 -157 48t-165 16h-192q-84 0 -165 -16t-157 -48q-72 -32 -139 -76t-123 -102q-56 -56 -101 -122t-75 -140q-32 -76 -49 -157t-17 -163v-420z M342 406q0 30 5 59t17 55t27 50t35 44t44 35t50 27t55 17t59 5t58 -5t56 -17q26 -12 49 -27t43 -35t36 -44t28 -50q10 -26 16 -55t6 -59t-6 -58t-16 -56q-12 -26 -28 -49t-36 -43t-43 -36t-49 -28q-28 -10 -56 -16t-58 -6t-59 6t-55 16q-26 12 -50 28t-44 36t-35 43t-27 49 q-12 28 -17 56t-5 58zM416 406q0 -90 64 -154t154 -64t154 64t64 154t-64 154t-154 64t-154 -64t-64 -154zM1118 406q0 30 6 59t18 55q10 26 26 50t36 44t43 35t49 27q28 12 57 17t57 5q30 0 59 -5t55 -17t50 -27t44 -35t36 -44t26 -50q12 -26 18 -55t6 -59t-6 -58t-18 -56 q-10 -26 -26 -49t-36 -43t-44 -36t-50 -28q-26 -10 -55 -16t-59 -6q-28 0 -57 6t-57 16q-26 12 -49 28t-43 36t-36 43t-26 49q-12 28 -18 56t-6 58zM1192 406q0 -90 64 -154t154 -64t155 64t65 154t-65 154t-155 64t-154 -64t-64 -154z" />
<glyph unicode="&#x2000;" horiz-adv-x="823" />
<glyph unicode="&#x2001;" horiz-adv-x="1646" />
<glyph unicode="&#x2002;" horiz-adv-x="823" />
<glyph unicode="&#x2003;" horiz-adv-x="1646" />
<glyph unicode="&#x2004;" horiz-adv-x="548" />
<glyph unicode="&#x2005;" horiz-adv-x="411" />
<glyph unicode="&#x2006;" horiz-adv-x="274" />
<glyph unicode="&#x2007;" horiz-adv-x="274" />
<glyph unicode="&#x2008;" horiz-adv-x="205" />
<glyph unicode="&#x2009;" horiz-adv-x="329" />
<glyph unicode="&#x200a;" horiz-adv-x="91" />
<glyph unicode="&#x202f;" horiz-adv-x="329" />
<glyph unicode="&#x205f;" horiz-adv-x="411" />
</font>
</defs>
</svg>
